HIERARCHY
ROOT Hips
{
	OFFSET 0.000000 0.000000 0.000000
	CHANNELS 6 Xposition Yposition Zposition Xrotation Yrotation Zrotation
	JOINT LeftUpLeg_virtual
	{
		OFFSET 0.000000 0.000000 0.000000
		CHANNELS 3 Xrotation Yrotation Zrotation
		JOINT LeftUpLeg
		{
			OFFSET 13.026900 -6.336304 -1.092800
			CHANNELS 3 Xrotation Yrotation Zrotation
			JOINT LeftLeg
			{
				OFFSET 0.524474 -46.096886 9.782700
				CHANNELS 3 Xrotation Yrotation Zrotation
				JOINT LeftFoot
				{
					OFFSET -0.524474 -53.427422 -12.948200
					CHANNELS 3 Xrotation Yrotation Zrotation
					JOINT LeftToeBase
					{
						OFFSET 0.192200 -14.009700 16.364100
						CHANNELS 3 Xrotation Yrotation Zrotation
						JOINT LeftToe_End
						{
							OFFSET -1.784700 -0.561700 9.474800
							CHANNELS 3 Xrotation Yrotation Zrotation
							End Site
							{
								OFFSET 0 0 0
							}
						}
					}
				}
			}
		}
	}
	JOINT RightUpLeg_virtual
	{
		OFFSET 0.000000 0.000000 0.000000
		CHANNELS 3 Xrotation Yrotation Zrotation
		JOINT RightUpLeg
		{
			OFFSET -12.883000 -6.336304 -1.092800
			CHANNELS 3 Xrotation Yrotation Zrotation
			JOINT RightLeg
			{
				OFFSET -0.524587 -46.096825 9.782800
				CHANNELS 3 Xrotation Yrotation Zrotation
				JOINT RightFoot
				{
					OFFSET 0.524587 -53.427383 -12.948300
					CHANNELS 3 Xrotation Yrotation Zrotation
					JOINT RightToeBase
					{
						OFFSET -0.192200 -14.009700 16.364100
						CHANNELS 3 Xrotation Yrotation Zrotation
						JOINT RightToe_End
						{
							OFFSET 1.784700 -0.561700 9.474800
							CHANNELS 3 Xrotation Yrotation Zrotation
							End Site
							{
								OFFSET 0 0 0
							}
						}
					}
				}
			}
		}
	}
	JOINT Spine_virtual
	{
		OFFSET 0.000000 0.000000 0.000000
		CHANNELS 3 Xrotation Yrotation Zrotation
		JOINT Spine
		{
			OFFSET 0.072000 7.257294 -0.789700
			CHANNELS 3 Xrotation Yrotation Zrotation
			JOINT Spine1
			{
				OFFSET 0.000000 12.508769 -0.658067
				CHANNELS 3 Xrotation Yrotation Zrotation
				JOINT Spine1_split
				{
					OFFSET 0.000000 12.508769 -0.658067
					CHANNELS 3 Xrotation Yrotation Zrotation
					JOINT Spine2
					{
						OFFSET 0.000000 12.508769 -0.658067
						CHANNELS 3 Xrotation Yrotation Zrotation
						JOINT Neck_virtual
						{
							OFFSET 0.000000 0.000000 0.000000
							CHANNELS 3 Xrotation Yrotation Zrotation
							JOINT Neck
							{
								OFFSET 0.000000 14.033295 7.520400
								CHANNELS 3 Xrotation Yrotation Zrotation
								JOINT Head
								{
									OFFSET 0.000000 8.198502 5.703100
									CHANNELS 3 Xrotation Yrotation Zrotation
									JOINT HeadTop_End
									{
										OFFSET 0.000000 17.760803 13.332701
										CHANNELS 3 Xrotation Yrotation Zrotation
										End Site
										{
											OFFSET 0 0 0
										}
									}
								}
							}
						}
						JOINT LeftShoulder_virtual
						{
							OFFSET 0.000000 0.000000 0.000000
							CHANNELS 3 Xrotation Yrotation Zrotation
							JOINT LeftShoulder
							{
								OFFSET 6.292450 5.785301 -0.669000
								CHANNELS 3 Xrotation Yrotation Zrotation
								JOINT LeftShoulder_split
								{
									OFFSET 6.292450 5.785301 -0.669000
									CHANNELS 3 Xrotation Yrotation Zrotation
									JOINT LeftArm
									{
										OFFSET 13.907140 -6.093903 1.965100
										CHANNELS 3 Xrotation Yrotation Zrotation
										JOINT LeftForeArm
										{
											OFFSET 34.140198 0.000000 0.000000
											CHANNELS 3 Xrotation Yrotation Zrotation
											JOINT LeftHand
											{
												OFFSET 40.960209 0.000000 0.000000
												CHANNELS 3 Xrotation Yrotation Zrotation
												End Site
												{
													OFFSET 0 0 0
												}
											}
										}
									}
								}
							}
						}
						JOINT RightShoulder_virtual
						{
							OFFSET 0.000000 0.000000 0.000000
							CHANNELS 3 Xrotation Yrotation Zrotation
							JOINT RightShoulder
							{
								OFFSET -6.292450 5.785301 -0.669000
								CHANNELS 3 Xrotation Yrotation Zrotation
								JOINT RightShoulder_split
								{
									OFFSET -6.292450 5.785301 -0.669000
									CHANNELS 3 Xrotation Yrotation Zrotation
									JOINT RightArm
									{
										OFFSET -13.907140 -6.093903 1.965100
										CHANNELS 3 Xrotation Yrotation Zrotation
										JOINT RightForeArm
										{
											OFFSET -34.140198 0.000000 0.000000
											CHANNELS 3 Xrotation Yrotation Zrotation
											JOINT RightHand
											{
												OFFSET -40.960209 0.000000 0.000000
												CHANNELS 3 Xrotation Yrotation Zrotation
												End Site
												{
													OFFSET 0 0 0
												}
											}
										}
									}
								}
							}
						}
					}
				}
			}
		}
	}
}
MOTION
Frames: 4
Frame Time: 0.03333333
1.857656 98.582062 -1.366264 0.000000 0.000000 0.000000 18.984472 -4.910150 -30.276565 -66.964452 -9.316124 24.878365 54.671307 -10.479928 6.872348 -6.185967 -2.561156 -5.615856 -2.577385 -0.041957 -0.452467 0.000000 0.000000 0.000000 19.437506 -3.467669 -31.813365 -27.120803 -29.931064 13.046928 33.633962 -8.473889 0.737939 -6.956923 -8.878345 9.316735 -3.014447 0.810614 -0.734109 0.000000 0.000000 0.000000 17.645732 -3.868733 -30.603506 7.790624 4.103943 -16.679737 5.905928 3.094102 -11.219948 1.888252 0.333861 0.084762 0.000000 0.000000 0.000000 6.817731 3.012042 -10.729250 -0.528852 2.850837 -5.522905 -7.591850 17.892881 -4.674538 0.000000 0.000000 0.000000 6.411390 3.595341 -10.869811 0.189946 -3.331632 16.385059 -1.599639 -0.802978 -2.634508 -55.452892 -45.880993 -95.847806 4.324308 -59.474166 2.693333 0.000000 0.000000 0.000000 7.327842 3.143807 -11.348333 0.407286 -3.913305 -0.767390 7.125514 3.728558 -2.006386 -3.074204 60.917310 19.826735 -1.548237 76.434263 1.073692 0.000000 0.000000 0.000000 
2.168248 98.666222 -1.449436 0.000000 0.000000 0.000000 19.026544 -5.362213 -29.556237 -67.101944 -8.396530 24.899765 54.734281 -10.463776 6.887864 -6.545944 -2.285770 -5.371747 -2.399328 -0.095904 -0.498780 0.000000 0.000000 0.000000 19.423919 -3.880620 -31.067826 -27.687316 -29.688568 12.495502 33.905821 -8.551022 0.815875 -6.830234 -8.583366 9.225726 -2.733450 0.761854 -0.638034 0.000000 0.000000 0.000000 17.701718 -4.177194 -30.013309 7.941707 3.974233 -16.327854 5.994080 3.003540 -11.038647 2.005916 0.620139 -0.219170 0.000000 0.000000 0.000000 6.724924 2.958326 -10.559642 0.749945 2.425881 -4.436642 -5.098597 17.759614 -3.392078 0.000000 0.000000 0.000000 6.546111 3.438362 -10.725852 -0.006018 -3.082828 16.900832 -1.122086 -0.715542 -2.331228 -54.557324 -45.796903 -95.035655 3.508954 -59.082516 2.229076 0.000000 0.000000 0.000000 7.462263 3.107115 -11.162900 0.467352 -3.328754 -1.509085 6.918623 3.702091 -1.783135 -3.627130 61.761945 21.383485 -1.382217 74.622986 0.905578 0.000000 0.000000 0.000000 
2.440270 98.786270 -1.541531 0.000000 0.000000 0.000000 19.058355 -5.780295 -28.814208 -67.159816 -7.601442 24.996609 54.773114 -10.471506 6.888743 -6.800915 -2.053658 -5.315947 -2.416303 -0.156658 -0.524221 0.000000 0.000000 0.000000 19.394450 -4.152364 -30.322495 -28.255205 -29.409135 11.987112 34.222229 -8.729020 0.940871 -6.794825 -8.273912 9.049880 -2.457683 0.722148 -0.525678 0.000000 0.000000 0.000000 17.631278 -4.589522 -29.350921 8.147173 3.831344 -16.096186 6.021038 2.886064 -10.772632 2.079363 0.944867 -0.263378 0.000000 0.000000 0.000000 6.572547 2.868670 -10.301345 2.281905 2.124279 -3.283486 -2.685119 17.512511 -1.976792 0.000000 0.000000 0.000000 6.601669 3.252856 -10.526902 -0.201293 -2.873934 17.167730 -0.485408 -0.468946 -1.976631 -53.035521 -45.745882 -93.712279 3.191941 -58.621444 2.142279 0.000000 0.000000 0.000000 7.490306 3.057709 -10.885228 0.497033 -2.713165 -2.260628 6.602850 3.781792 -1.516239 -4.943327 62.095470 23.821641 -1.298730 72.574694 0.693541 0.000000 0.000000 0.000000 
2.655807 98.937546 -1.654259 0.000000 0.000000 0.000000 19.102487 -6.215718 -28.025484 -67.245132 -6.913930 25.187784 54.865291 -10.470188 6.848918 -6.682671 -1.894969 -5.410913 -2.605783 -0.224269 -0.523207 0.000000 0.000000 0.000000 19.394179 -4.335343 -29.553750 -28.857802 -29.089062 11.532624 34.504832 -8.973516 1.069615 -6.737603 -7.945471 8.859157 -2.308180 0.691391 -0.408547 0.000000 0.000000 0.000000 17.519364 -5.106394 -28.601637 8.389855 3.709668 -15.975379 6.031320 2.747654 -10.448835 2.067656 1.143060 -0.097786 0.000000 0.000000 0.000000 6.478764 2.762858 -9.992293 3.917195 2.007738 -2.156012 -0.676915 17.278832 -0.529433 0.000000 0.000000 0.000000 6.638081 3.071210 -10.312922 -0.370209 -2.752902 17.190162 0.141168 -0.185076 -1.626222 -51.053748 -46.006416 -91.757683 3.285960 -58.161847 2.350165 0.000000 0.000000 0.000000 7.461860 2.998108 -10.561701 0.509504 -2.105357 -2.901661 6.196834 3.837909 -1.207190 -6.470277 62.099206 26.462350 -1.220206 70.745959 0.422920 0.000000 0.000000 0.000000 
